<?xml version="1.0" encoding="UTF-8"?>
<svg id="Layer_2" data-name="Layer 2" xmlns="http://www.w3.org/2000/svg" xmlns:xlink="http://www.w3.org/1999/xlink" viewBox="0 0 2188.78 466.63">
  <defs>
    <style>
      .cls-1 {
        fill: url(#linear-gradient);
      }
    </style>
    <linearGradient id="linear-gradient" x1="0" y1="233.31" x2="2188.78" y2="233.31" gradientUnits="userSpaceOnUse">
      <stop offset="0" stop-color="#00ffa3"/>
      <stop offset=".5" stop-color="#03e1ff"/>
      <stop offset="1" stop-color="#dc1fff"/>
    </linearGradient>
  </defs>
  <g id="Layer_1-2" data-name="Layer 1">
    <path class="cls-1" d="M1647.16,449.63c-3.14-5.35-6.51-15.33-6.56-17.84-.03-1.56,1.15-1.75,10.97-1.75h11v4.84c0,2.66-1.71,6.3-1.69,12.57.27,10.85,4.19,19.18,2.27,19.18-.73,0-12.71-11.64-14.17-14.14l-1.83-2.86ZM1730.67,433c-.69-1.22-28.06,1.43-63.91,1.08-23.36-.23-48.99-.93-56.97-1.57-18.56-1.47-56.51-5.72-64.97-7.28l-6.53-1.19,5.78-.67c3.17-.36,21.4-.96,40.5-1.33,101.92-1.98,163.97-7.83,220.22-20.75,23.08-5.31,31.1-8.01,45.58-15.38,22.97-11.69,49.77-31.31,82.07-60.07,14.34-12.78,36.53-38.09,37.07-38.73,3.1-3.67,5.62-8.94,1.43-10.11-6.97-1.95-7.66-1.45-21.68-15.27-34.15-33.64-75.57-59.97-125.62-79.85-14.28-5.68-39.15-14.43-40.99-14.43-.53,0,1.04,2.81,3.47,6.25,5.75,8.09,13.69,24.11,16.99,34.25,8.22,25.28,8.23,53.83.04,79.75-11.77,37.25-40.96,68.24-77.92,82.72-47.35,18.55-101.36,9.25-138.67-23.88-21.29-18.9-34.22-40.07-41.49-67.95-2.59-9.92-4.06-20.65-4.06-30.72,0-9.3,1.47-20.63,4.08-30.65,3-11.53,6.91-21.75,11.7-30.58,1.64-3.04,2.81-5.72,2.58-5.94-.63-.63-20.52,8.18-34.84,15.44-34.33,17.4-77.8,47.29-97.25,66.87-12.72,12.8-51.36,57.47-62.91,72.72-1.57,2.07-3.03,3.6-3.25,3.38-.82-.82,8.62-19.62,15.13-30.15,8.72-14.09,21.56-33.33,27.37-41.01,15.16-20.05,37.69-42.85,53.9-57.82,24.72-22.82,74.77-71.13,106.27-87.11,30.44-15.45,50.15-21.16,85.04-24.66l12.46-1.24,5.84-5.58c3.22-3.06,7.42-8.25,9.34-11.53,4.56-7.78,8.98-21.16,10.09-30.56l.9-7.5,3.67,7.83c2.03,4.31,4.82,11.51,6.22,16,1.4,4.49,2.91,8.86,3.36,9.69.45.84,1.62,5.23,2.59,9.76.98,4.53,2.28,8.87,2.89,9.64.74.94,6.03,1.94,16.1,3.03l15,1.62,4.33-4.72c7.99-8.72,21.63-40.76,26.22-61.6.7-3.16,1.61-5.75,2.03-5.75,1.26,0,6.49,7.13,10.24,14,4.25,7.77,7.49,18.88,8.33,28.55.66,7.64-1.25,19.51-4.73,29.42-1.06,3-1.92,5.79-1.92,6.18s2.04,1.03,4.54,1.41c3.9.58,5.48.22,11.25-2.61,8.82-4.33,23.42-18.9,32.02-31.95,10.86-16.49,25.17-46.64,31.79-66.97l1.78-5.48,1.41,3.46c2.28,5.6,8.97,32.79,11.34,46.14,2.83,15.9,3.15,40.45.65,48.85-7.27,24.35-8.15,29.54-5.2,30.67,7.99,3.06,41.69-44.92,77.9-110.92,5.35-9.76,10.11-17.75,10.56-17.75,1.04,0,1.45,1.39,3.66,12.5,1.46,7.31,1.79,13.89,1.76,35-.03,23.17-.28,27.13-2.29,36.38-4.06,18.67-11.65,39.96-23.28,65.36-3.24,7.07-5.89,13.09-5.89,13.38,0,1.04,29.08-15.25,44.5-24.93,38.87-24.41,63.71-49.85,86.58-88.69l4.42-7.5.32,8.5c.77,20.61-3.41,51.82-8.43,63.06-1.6,3.56-12.64,18.27-30.79,41-15.57,19.49-27.91,35.59-27.42,35.78,1.5.59,10.91-1.97,20.12-5.47,24.59-9.34,51-25.64,75.2-46.41,11.94-10.25,34.02-32.97,44.43-45.72,4.61-5.65,8.52-10.12,8.7-9.95.65.66-2.82,21.2-5.12,30.26-6.33,24.96-17.08,44.73-33.96,62.45-12.47,13.09-13.25,14.04-14.97,18.16-1.44,3.44-.58,11.93.75,14.5,3.88,7.45,10.75,10.65,22.67,10.56,15.47-.12,38.16-7.72,58.75-19.7,5.09-2.95,9.25-5.14,9.25-4.85,0,1.53-12.12,23.18-17.82,31.83-8.02,12.16-23.42,27.85-34.68,35.33-21.3,14.14-45.96,22.32-76.2,25.27-13.31,1.3-66.18-1.46-73.1,6.83-4.62,4.88-6.12,6.76-5.98,6.73,19.7-4.14,44.67,11.41,51.76,16.2.51.34.2,1.13-.4,1.05l-20.82-2.77c-16.16-2-26.23-1.09-33.4,1.23-4.48,1.46-9.19,3.49-10.46,4.51l-2.3,1.87,13.31,22.2c11.36,15.34,21.57,33.78,19.84,35.41-2.49,2.35-45.52-32-55.19-28.54l-3.88,2.76-9.68,7.83c-5.48,5.19-13.56,12.11-17.96,15.38-7.95,5.92-7.98,5.96-4.99,6.56,5.63,1.12,18.03,6.85,25.75,11.89,14.29,9.32,23.5,21.29,26.59,34.53.78,3.35,1.19,6.33.9,6.61-.96.96-7.73-3.14-18.79-11.38-24.61-18.33-30.21-26.64-55.63-27.05-9.56.81-14.34,3.3-19.06,5.45l-8.56,3.9,3.71,3.86c7.61,7.93,15.02,27.95,16.59,44.88.81,8.63,1.65,9.02-9.77-4.55q-9.31-11.07-18.92-23.24c-9.8-11.69-10.6-13.58-23.51-10.46-7.07,1.62-12.4,2.79-15.67,3.37-2.19.29-4.31.76-7.16,1.29-8.48,1.56-32.73,5.42-37.83,6.02-3.88.46-5.65,1.07-5.31,1.85,3.69,8.36,6.54,16.11,7.42,20.17,1.69,7.77,5.16,12.22,1.48,13.49-2.38.64-8.35-3.82-17.03-10.97l-21.35-20.46ZM1692.51,341.21c26.62-7.89,43.53-10.64,69.29-56.38,7.79-13.82,7.57-52.01-2.86-29.86-41.34,73.28-116.48,70.48-179.94,22.53-6.42-4.74-6.65-3.63-1.35,6.62,22.54,43.55,64.98,64.65,114.86,57.09h0ZM1723.24,242.25c8.03-4.7,13.51-14.1,13.51-23.15,0-14.24-13.13-27.41-27.33-27.41-16.92,0-30.15,16.35-26.6,32.87,3.83,17.86,24.61,26.96,40.42,17.69h0ZM0,159.19v-68.29h271.34v68.29h-93.9v243.9h-83.54v-243.9H0ZM267.86,403.1v-234.15h81.71v44.51h2.44c4.27-16.46,11.05-28.51,20.35-36.13,9.3-7.62,20.2-11.43,32.7-11.43,3.66,0,7.29.28,10.9.84,3.61.56,7.09,1.35,10.44,2.36v71.8c-4.17-1.42-9.3-2.49-15.4-3.2-6.1-.71-11.33-1.07-15.7-1.07-8.23,0-15.62,1.86-22.18,5.56-6.55,3.71-11.71,8.89-15.47,15.55-3.76,6.66-5.64,14.46-5.64,23.4v121.95h-84.15ZM441.81,403.1v-234.15h84.15v234.15h-84.15ZM484.03,144.56c-11.49,0-21.29-3.76-29.42-11.28-8.13-7.52-12.2-16.56-12.2-27.13s4.06-19.61,12.2-27.13c8.13-7.52,17.89-11.28,29.27-11.28s21.27,3.76,29.34,11.28c8.08,7.52,12.12,16.57,12.12,27.13s-4.04,19.61-12.12,27.13c-8.08,7.52-17.81,11.28-29.19,11.28ZM629.17,168.95l34.15,72.56,35.98-72.56h83.54l-62.81,117.07,65.85,117.07h-82.93l-39.63-74.39-38.41,74.39h-84.15l66.46-117.07-62.19-117.07h84.15ZM800.69,403.1v-234.15h84.15v234.15h-84.15ZM842.92,144.56c-11.49,0-21.29-3.76-29.42-11.28-8.13-7.52-12.2-16.56-12.2-27.13s4.06-19.61,12.2-27.13c8.13-7.52,17.89-11.28,29.27-11.28s21.27,3.76,29.34,11.28c8.08,7.52,12.12,16.57,12.12,27.13s-4.04,19.61-12.12,27.13c-8.08,7.52-17.81,11.28-29.19,11.28ZM995.37,403.1h-91.46l103.05-312.2h115.86l103.05,312.2h-91.46l-68.29-226.22h-2.44l-68.29,226.22ZM978.3,279.93h171.95v63.42h-171.95v-63.42ZM1328.47,90.9v312.2h-84.76V90.9h84.76Z"/>
  </g>
</svg>